<svg width="117" height="36" viewBox="0 0 117 36" fill="none" xmlns="http://www.w3.org/2000/svg">
<path d="M72.654 27.5313C65.9355 32.499 56.163 35.1457 47.7343 35.1457C35.9259 35.1457 25.3391 30.7888 17.2768 23.5409C16.6661 22.9709 17.1954 22.1972 17.9691 22.6451C26.6421 27.6942 37.3511 30.7074 48.4265 30.7074C55.878 30.7074 64.1031 29.1601 71.6768 25.9433C72.8169 25.4954 73.7534 26.717 72.654 27.5313Z" fill="#ABAFC7"/>
<path d="M75.4644 24.3146C74.6093 23.2152 69.7638 23.7852 67.6057 24.0703C66.9542 24.1517 66.8321 23.5816 67.4428 23.1745C71.3111 20.4463 77.6225 21.2607 78.3554 22.1565C79.0883 23.0523 78.1518 29.4044 74.5279 32.4176C73.9578 32.8655 73.4285 32.6212 73.6728 32.0104C74.4871 29.9745 76.3195 25.4547 75.4644 24.3146Z" fill="#ABAFC7"/>
<path fill-rule="evenodd" clip-rule="evenodd" d="M24.6878 20.4464H21.1046C20.7789 20.4056 20.4938 20.1613 20.4531 19.8356V1.43081C20.4531 1.06435 20.7789 0.779316 21.1453 0.779316H24.4843C24.8507 0.779316 25.095 1.06435 25.1358 1.39009V3.79249H25.2172C26.0723 1.47153 27.7417 0.372131 29.9405 0.372131C32.1801 0.372131 33.6052 1.47153 34.5824 3.79249C35.4375 1.47153 37.4327 0.372131 39.5501 0.372131C41.0567 0.372131 42.6854 0.982909 43.7034 2.40806C44.6738 3.72505 44.6413 5.54352 44.6101 7.28599C44.6046 7.59071 44.5992 7.8931 44.5992 8.19008V19.8356C44.5992 20.202 44.2735 20.4871 43.907 20.4871H40.3645C39.998 20.4464 39.713 20.1613 39.713 19.8356V10.0631C39.713 9.89661 39.7168 9.67536 39.721 9.42337C39.7367 8.50467 39.7594 7.17723 39.6315 6.60206C39.3465 5.38051 38.5729 5.01404 37.5142 5.01404C36.6591 5.01404 35.7226 5.5841 35.3561 6.52063C35.0219 7.37468 35.0263 8.73667 35.0297 9.77283C35.03 9.87289 35.0304 9.96991 35.0304 10.0631V19.8356C35.0304 20.202 34.7046 20.4871 34.3381 20.4871H30.7549C30.3884 20.4464 30.1034 20.1613 30.1034 19.8356V10.0631C30.1034 9.86028 30.1066 9.64732 30.11 9.42829C30.14 7.44897 30.1776 4.97332 27.9046 4.97332C25.4152 4.97332 25.4183 7.73417 25.4206 9.86968L25.4208 10.0631V19.8356C25.3801 20.1613 25.095 20.4464 24.6878 20.4464ZM67.7273 4.0368V1.39009C67.7273 0.982909 68.0123 0.738598 68.3788 0.738598H80.1872C80.5536 0.738598 80.8794 1.02363 80.8794 1.39009V3.62961C80.8794 3.99608 80.5536 4.4847 79.9836 5.29907L73.8758 14.0128C76.156 13.9721 78.5584 14.2979 80.5944 15.438C81.0423 15.6823 81.1644 16.0895 81.2051 16.4559V19.2655C81.2051 19.6727 80.798 20.1206 80.3501 19.8763C76.7261 17.9625 71.8806 17.7589 67.8902 19.917C67.483 20.1206 67.0351 19.7134 67.0351 19.3062V16.6188C67.0351 16.2116 67.0351 15.4787 67.483 14.8272L74.568 4.68829H68.4195C68.0531 4.68829 67.7273 4.40326 67.7273 4.0368ZM99.2841 10.7554C99.2841 4.9326 96.3931 0.372131 91.059 0.372131C85.847 0.372131 82.956 4.85117 82.9967 10.5925C82.9967 16.2931 85.847 20.8535 91.059 20.8535C96.1081 20.8535 99.2841 16.3745 99.2841 10.7554ZM91.059 4.15895C88.4123 4.15895 88.2494 7.7829 88.2494 10.0224L88.2494 10.1171C88.2489 12.3943 88.2477 17.0667 91.0183 17.0667C93.7872 17.0667 93.95 13.1985 93.95 10.8368C93.95 9.28948 93.8686 7.41643 93.4207 5.95057C93.0135 4.64757 92.1991 4.15895 91.059 4.15895ZM102.582 20.4464H106.166C106.532 20.4464 106.858 20.1613 106.899 19.7949V9.85954C106.899 8.59727 106.98 7.49787 107.469 6.35775C107.876 5.46194 108.69 4.89189 109.545 4.89189C111.829 4.89189 111.806 7.37143 111.788 9.35343C111.786 9.5266 111.785 9.69596 111.785 9.85954V19.8763C111.825 20.1613 112.11 20.4056 112.436 20.4464H116.019C116.386 20.4464 116.671 20.202 116.712 19.8763V8.27152C116.712 6.47991 116.712 3.99608 115.775 2.53021C114.757 0.94219 113.169 0.372131 111.581 0.372131C109.097 0.372131 107.713 1.55297 106.695 4.07752H106.613V1.26794C106.532 0.982909 106.288 0.738598 105.962 0.738598H102.623C102.257 0.738598 101.972 1.02363 101.931 1.34938V19.7949C101.931 20.1206 102.216 20.4056 102.582 20.4464Z" fill="#ABAFC7"/>
<path fill-rule="evenodd" clip-rule="evenodd" d="M61.09 20.487C61.3751 20.6499 61.7008 20.6092 61.9451 20.4056C62.2053 20.1888 62.5373 19.9053 62.8919 19.6025C63.5364 19.0521 64.2557 18.4379 64.7547 18.0439C65.0397 17.8403 64.999 17.4332 64.7547 17.1074C64.6762 16.9945 64.5971 16.8846 64.5186 16.7756C63.9464 15.9806 63.411 15.2367 63.411 13.7685V8.19006C63.411 8.00361 63.412 7.81819 63.413 7.63397C63.4248 5.48477 63.4356 3.501 61.823 2.00084C60.4385 0.657132 58.1583 0.209229 56.4074 0.209229C52.9871 0.209229 49.2002 1.4715 48.3859 5.70623C48.3044 6.15413 48.6302 6.35772 48.9152 6.43916L52.3763 6.80563C52.702 6.80563 52.9056 6.47988 52.9871 6.15413C53.2721 4.68826 54.4936 3.99605 55.8781 3.99605C56.611 3.99605 57.4254 4.28108 57.8733 4.93258C58.3413 5.58055 58.3319 6.4513 58.3234 7.23534C58.3223 7.33813 58.3212 7.43944 58.3212 7.53856V7.98646C57.9833 8.02621 57.6283 8.0638 57.2621 8.10257C55.3774 8.30209 53.1984 8.53276 51.5619 9.24874C49.3224 10.226 47.7344 12.1805 47.7344 15.1122C47.7344 18.8176 50.096 20.6906 53.1092 20.6906C55.6338 20.6906 57.0589 20.0799 59.0134 18.0847C59.1081 18.2207 59.1941 18.3473 59.2757 18.4674C59.7557 19.1735 60.0808 19.6518 61.09 20.487ZM58.3214 11.8696C58.3213 11.7973 58.3212 11.7245 58.3212 11.6511V10.8775C55.7152 10.8775 52.9871 11.4475 52.9871 14.5014C52.9871 16.0487 53.8014 17.1074 55.1859 17.1074C56.2038 17.1074 57.0996 16.4966 57.6697 15.4787C58.3252 14.2833 58.3234 13.161 58.3214 11.8696Z" fill="#ABAFC7"/>
<path fill-rule="evenodd" clip-rule="evenodd" d="M14.0197 20.487C14.3048 20.6499 14.6305 20.6092 14.8748 20.4056C15.135 20.1888 15.467 19.9053 15.8216 19.6025C16.4661 19.0521 17.1854 18.4379 17.6844 18.0439C17.9694 17.8403 17.9287 17.4332 17.6844 17.1074C17.6059 16.9945 17.5268 16.8846 17.4483 16.7756C16.8761 15.9806 16.3407 15.2367 16.3407 13.7685V8.19006C16.3407 8.00361 16.3417 7.81819 16.3427 7.63397C16.3545 5.48477 16.3653 3.501 14.7527 2.00084C13.3682 0.657132 11.088 0.209229 9.3371 0.209229C5.91675 0.209229 2.12993 1.4715 1.31556 5.70623C1.23412 6.15413 1.55987 6.35772 1.8449 6.43916L5.30597 6.80563C5.63172 6.80563 5.83531 6.47988 5.91675 6.15413C6.20178 4.68826 7.42334 3.99605 8.80776 3.99605C9.5407 3.99605 10.3551 4.28108 10.803 4.93258C11.271 5.58055 11.2615 6.4513 11.2531 7.23534C11.252 7.33813 11.2509 7.43944 11.2509 7.53856V7.98646C10.913 8.02621 10.5579 8.0638 10.1918 8.10257C8.30704 8.30209 6.12812 8.53276 4.4916 9.24874C2.25208 10.226 0.664062 12.1805 0.664062 15.1122C0.664062 18.8176 3.02574 20.6906 6.03891 20.6906C8.56345 20.6906 9.9886 20.0799 11.9431 18.0847C12.0377 18.2207 12.1238 18.3473 12.2054 18.4674C12.6853 19.1735 13.0105 19.6518 14.0197 20.487ZM11.2918 11.8696C11.2917 11.7973 11.2916 11.7245 11.2916 11.6511V10.8775C8.68561 10.8775 5.95747 11.4475 5.95747 14.5014C5.95747 16.0487 6.77184 17.1074 8.15627 17.1074C9.17423 17.1074 10.07 16.4966 10.6401 15.4787C11.2956 14.2833 11.2939 13.161 11.2918 11.8696Z" fill="#ABAFC7"/>
</svg>
