<svg width="166" height="35" viewBox="0 0 166 35" fill="none" xmlns="http://www.w3.org/2000/svg">
<path d="M34.1072 21.7685C31.8058 31.001 22.4565 36.6171 13.2241 34.3157C3.99644 32.0144 -1.62133 22.6645 0.681135 13.4342C2.98144 4.20173 12.3302 -1.41603 21.5594 0.88535C30.7908 3.18673 36.4081 12.5377 34.1067 21.7685H34.1072Z" fill="#ABAFC7"/>
<path fill-rule="evenodd" clip-rule="evenodd" d="M24.9907 15.146C25.3337 12.8532 23.588 11.6207 21.201 10.7984L21.9753 7.69259L20.0847 7.22144L19.3309 10.2454C18.8273 10.1217 18.3226 10.0029 17.8167 9.88898L18.576 6.84506L16.686 6.3739L15.9117 9.47867C15.5003 9.38498 15.0964 9.29236 14.7044 9.1949L14.7066 9.18521L12.0993 8.53421L11.5964 10.5534C11.5964 10.5534 12.9991 10.8749 12.9695 10.8948C13.7352 11.086 13.8736 11.5927 13.8504 11.9944L12.9684 15.5326C13.0212 15.5461 13.0896 15.566 13.165 15.5956L12.9652 15.5461L11.7289 20.5026C11.6352 20.7352 11.3977 21.0841 10.862 20.9517C10.8813 20.9791 9.48834 20.6087 9.48834 20.6087L8.5498 22.7733L11.01 23.3871C11.2921 23.4575 11.5706 23.5301 11.8462 23.6019C12.0178 23.6466 12.1883 23.691 12.3578 23.7344L11.5754 26.8758L13.4638 27.347L14.2381 24.2384C14.754 24.379 15.2547 24.5077 15.7447 24.6299L14.9726 27.7234L16.8626 28.1945L17.6455 25.0591C20.8693 25.6691 23.2934 25.4231 24.3138 22.5078C25.136 20.1601 24.2729 18.8059 22.5767 17.9223C23.812 17.6369 24.7424 16.8244 24.9907 15.146ZM20.6706 21.2026C20.1343 23.3576 16.7596 22.4655 15.2181 22.0581C15.0803 22.0216 14.9571 21.9891 14.852 21.9629L15.8901 17.8011C16.0193 17.8334 16.1773 17.8689 16.3563 17.9091C17.9525 18.2677 21.2196 19.0016 20.6706 21.2026ZM16.6752 15.9778C17.9614 16.321 20.7667 17.0697 21.2553 15.1126V15.1121C21.7544 13.1097 19.0277 12.5061 17.6961 12.2113C17.5463 12.1781 17.4142 12.1489 17.3063 12.122L16.365 15.8966C16.454 15.9188 16.5583 15.9466 16.6752 15.9778Z" fill="white"/>
<path fill-rule="evenodd" clip-rule="evenodd" d="M50.6594 10.7952C52.0567 10.7952 53.2639 11.0456 54.2779 11.5372C55.2977 12.0336 56.1388 12.7024 56.8135 13.5435C57.479 14.3889 57.9744 15.3769 58.2943 16.5093C58.6119 17.6455 58.7713 18.8656 58.7713 20.1719C58.7713 22.1804 58.4036 24.0758 57.661 25.8635C56.9179 27.6539 55.911 29.2073 54.6295 30.5319C53.349 31.8549 51.837 32.8974 50.0935 33.6679C48.3526 34.439 46.4599 34.8246 44.4278 34.8246C44.165 34.8246 43.703 34.817 43.0504 34.8036C42.3978 34.7901 41.6477 34.7228 40.8077 34.6097C39.9048 34.4808 39.0092 34.305 38.1246 34.0831C37.1987 33.8596 36.2993 33.5383 35.4414 33.1246L42.9863 1.4211L49.744 0.374329L47.0426 11.6244C47.6044 11.3705 48.1874 11.1665 48.785 11.0149C49.3984 10.8658 50.0276 10.792 50.6589 10.7952H50.6594ZM44.991 29.4636C46.0087 29.4636 46.9672 29.2133 47.8686 28.7222C48.7746 28.2269 49.5697 27.5514 50.2049 26.7374C50.8688 25.8886 51.3912 24.9382 51.7519 23.9229C52.1302 22.8733 52.3223 21.7657 52.3195 20.6501C52.3195 19.2544 52.0863 18.1678 51.6216 17.38C51.1569 16.5966 50.297 16.2024 49.0478 16.2024C48.6386 16.2024 48.1119 16.2805 47.4583 16.4199C46.8024 16.568 46.2155 16.8755 45.6894 17.338L42.8124 29.2854C42.9858 29.3161 43.1393 29.3452 43.2701 29.3726C43.3983 29.4023 43.5393 29.4233 43.6809 29.4378C43.8301 29.4545 44.0008 29.4631 44.207 29.4631L44.9905 29.4636H44.991ZM59.3249 34.2183H65.7794L71.2744 11.2814H64.7757L59.3249 34.2183ZM68.9203 8.48679C68.0397 8.49409 67.1812 8.21098 66.4778 7.68125C65.7471 7.1471 65.3847 6.32487 65.3847 5.21671C65.3847 4.60717 65.5086 4.03533 65.7546 3.49579C65.9924 2.97314 66.3259 2.49958 66.7379 2.09956C67.1507 1.70547 67.6302 1.38771 68.154 1.16102C68.6992 0.928052 69.2864 0.809653 69.8793 0.813175C70.7796 0.813175 71.5916 1.08133 72.3196 1.61871C73.0443 2.15879 73.4089 2.98102 73.4089 4.08325C73.4124 4.67821 73.2856 5.26672 73.0373 5.80741C72.8018 6.33057 72.4693 6.80434 72.0573 7.20364C71.6454 7.59824 71.1657 7.91526 70.6412 8.13948C70.1016 8.37533 69.5298 8.48679 68.9203 8.48679ZM83.6913 4.51941L76.9309 5.56671L72.6556 23.6192C72.3072 25.1016 72.1047 26.5102 72.0455 27.8499C71.9879 29.1869 72.1941 30.3731 72.6556 31.4016C73.1235 32.4343 73.9053 33.2506 75.0113 33.8473C76.1189 34.4396 77.6735 34.7373 79.6787 34.7373C81.0733 34.7373 82.28 34.6248 83.2993 34.39C84.2607 34.175 85.2075 33.8989 86.1338 33.5635L85.6513 28.5908C85.0048 28.8195 84.3425 29.0013 83.6698 29.1346C83.015 29.266 82.336 29.3323 81.6398 29.3323C80.7944 29.3323 80.1499 29.2143 79.6992 28.9801C79.2469 28.7502 78.9356 28.4244 78.7623 28.0017C78.5878 27.5801 78.5135 27.0793 78.5458 26.4962C78.5738 25.9152 78.6739 25.2906 78.8506 24.6223L80.7675 16.5993H87.964L89.2714 11.2803H82.0313L83.6913 4.51941ZM88.9876 25.0596C88.9876 23.0834 89.3075 21.2209 89.9461 19.4763C90.5842 17.7306 91.5033 16.204 92.6955 14.8945C93.8839 13.5914 95.3318 12.5581 97.0366 11.7999C98.7316 11.0461 100.631 10.6659 102.724 10.6659C104.034 10.6659 105.204 10.7898 106.235 11.038C107.268 11.2884 108.203 11.612 109.049 12.018L106.824 17.0796C106.23 16.8411 105.627 16.6302 105.014 16.4474C104.389 16.2552 103.627 16.1626 102.725 16.1626C100.57 16.1626 98.8679 16.9056 97.6003 18.3853C96.3371 19.8666 95.7012 21.8606 95.7012 24.3623C95.7012 25.8446 96.0216 27.0427 96.6634 27.9597C97.302 28.8767 98.4818 29.3333 100.195 29.3333C101.039 29.3333 101.856 29.245 102.637 29.0727C103.424 28.8983 104.119 28.6786 104.732 28.419L105.214 33.6076C104.331 33.9464 103.428 34.2312 102.511 34.4606C101.52 34.7029 100.342 34.8278 98.9761 34.8278C97.1733 34.8278 95.6463 34.5645 94.3981 34.0443C93.1489 33.5172 92.1166 32.8166 91.303 31.9293C90.4856 31.0397 89.8993 30.0005 89.5363 28.8089C89.1734 27.6173 88.9871 26.3643 88.9871 25.0596H88.9876ZM113.646 34.1267C114.782 34.5914 116.12 34.8262 117.661 34.8262C119.783 34.8262 121.653 34.3819 123.264 33.4951C124.879 32.6088 126.223 31.4683 127.298 30.0737C128.374 28.6769 129.19 27.1046 129.74 25.3654C130.289 23.6186 130.565 21.8708 130.565 20.1294C130.565 18.7353 130.378 17.4608 129.998 16.3155C129.622 15.1648 129.061 14.1724 128.323 13.327C127.578 12.4859 126.634 11.8285 125.489 11.3649C124.338 10.9002 123.007 10.6649 121.495 10.6649C119.433 10.6649 117.598 11.1096 116.003 11.9938C114.407 12.8839 113.05 14.0254 111.95 15.4216C110.843 16.8157 110.005 18.3848 109.441 20.1294C108.873 21.8724 108.593 23.6192 108.593 25.3659C108.593 26.7589 108.776 28.0303 109.157 29.1783C109.537 30.3268 110.093 31.3235 110.836 32.1646C111.578 33.0099 112.515 33.6626 113.646 34.1267ZM120.886 16.1631C119.929 16.1631 119.083 16.4404 118.359 16.9891C117.632 17.5443 117.022 18.2426 116.53 19.0837C116.032 19.9291 115.664 20.8509 115.415 21.853C115.167 22.8573 115.046 23.8076 115.046 24.7085C115.046 26.1639 115.281 27.2985 115.742 28.1137C116.21 28.9246 117.051 29.3333 118.272 29.3333C119.232 29.3333 120.074 29.0571 120.802 28.503C121.525 27.9522 122.136 27.2538 122.632 26.41C123.126 25.57 123.498 24.6449 123.747 23.6407C123.991 22.6397 124.116 21.685 124.116 20.7847C124.116 19.333 123.882 18.1969 123.416 17.3822C122.952 16.5707 122.107 16.1626 120.886 16.1626V16.1631ZM131.14 34.2183H137.599L143.092 11.2814H136.591L131.14 34.2183ZM140.735 8.48679C139.856 8.49422 138.998 8.21106 138.296 7.68125C137.568 7.1471 137.203 6.32487 137.203 5.21671C137.203 4.60717 137.329 4.03533 137.574 3.49579C137.81 2.97251 138.144 2.49874 138.556 2.09956C138.97 1.70533 139.45 1.38756 139.974 1.16102C140.517 0.928008 141.102 0.809589 141.693 0.813175C142.596 0.813175 143.411 1.08133 144.137 1.61871C144.864 2.15879 145.23 2.98102 145.23 4.08325C145.23 4.69494 145.1 5.26894 144.856 5.80741C144.612 6.34587 144.284 6.80948 143.878 7.20364C143.465 7.5973 142.986 7.91421 142.462 8.13948C141.921 8.37533 141.349 8.48679 140.735 8.48679ZM149.376 11.8215C148.781 12.0089 148.234 12.1812 147.744 12.3244L142.465 34.2145H148.965L153.195 16.4679C154.042 16.2951 154.903 16.2064 155.767 16.2029C156.639 16.2029 157.283 16.3704 157.709 16.7037C158.123 17.0321 158.408 17.496 158.513 18.0138C158.633 18.5539 158.639 19.179 158.536 19.8876C158.434 20.6027 158.296 21.335 158.121 22.0916L155.243 34.2161H161.74L164.709 21.8315C165.549 18.402 165.325 15.6973 164.031 13.7206C162.735 11.7439 160.389 10.7526 156.985 10.7526C155.827 10.7526 154.784 10.8033 153.87 10.9072C152.955 11.0089 152.123 11.1409 151.386 11.3024C150.708 11.4432 150.037 11.6164 149.376 11.8215Z" fill="#ABAFC7"/>
</svg>
