<svg width="126" height="35" viewBox="0 0 126 35" fill="none" xmlns="http://www.w3.org/2000/svg">
<path fill-rule="evenodd" clip-rule="evenodd" d="M121.052 26.4042C118.929 26.4042 117.054 28.001 117.054 30.3631C117.054 32.7206 118.929 34.3189 121.052 34.3189C123.183 34.3189 125.055 32.7206 125.055 30.3631C125.055 28.001 123.182 26.4042 121.052 26.4042ZM121.055 27.042C122.928 27.042 124.288 28.4459 124.288 30.3631C124.288 32.2749 122.928 33.6788 121.055 33.6788C119.186 33.6788 117.824 32.2772 117.824 30.3631C117.824 28.4459 119.186 27.042 121.055 27.042ZM120.206 32.7027V30.5335L120.21 30.535V30.5327H120.89C121.355 30.5327 121.571 30.6805 121.694 31.0857C121.758 31.3169 121.791 31.5676 121.824 31.8141C121.866 32.1355 121.907 32.4498 122.016 32.7042H122.845C122.713 32.5539 122.632 31.9805 122.572 31.5513C122.562 31.4833 122.553 31.4188 122.544 31.3602C122.461 30.6999 122.312 30.339 121.908 30.2745V30.2542C122.374 30.1928 122.735 29.7689 122.735 29.2338C122.735 28.365 122.267 27.9193 121.247 27.9193H119.505V32.7027H120.206ZM121.075 29.9151C121.755 29.9151 121.95 29.5527 121.95 29.233C121.95 28.855 121.755 28.5563 121.075 28.5563H120.206V29.9167H121.075V29.9151Z" fill="#ABAFC7"/>
<path fill-rule="evenodd" clip-rule="evenodd" d="M65.9395 0.361145V33.629H84.4023H94.0172L98.5867 28.4591L103.197 33.629H113.153L103.673 23.0271L113.023 12.5108H103.455L98.974 17.641L94.3175 12.5108H84.4023H73.76V7.77648H84.4023V0.361145H65.9395ZM84.4023 12.5108L93.7995 23.0715L84.4023 33.629V26.195H73.76V19.6461H84.4023V12.5108Z" fill="#ABAFC7"/>
<path fill-rule="evenodd" clip-rule="evenodd" d="M58.1474 0.362671V13.9761H58.0611C56.3368 11.9943 54.1815 11.3037 51.6825 11.3037C46.5616 11.3037 42.7039 14.7873 41.3498 19.3894C39.8051 14.3176 35.8221 11.2088 29.9172 11.2088C25.1206 11.2088 21.3344 13.3609 19.3565 16.8687V12.51H9.44376V7.77723H20.2626V0.362671H0.607422V33.629H9.44376V19.6461H18.2513C17.98 20.7214 17.8444 21.8264 17.8476 22.9353C17.8476 29.8716 23.1482 34.7459 29.9156 34.7459C35.6043 34.7459 39.3563 32.0727 41.3389 27.2061H33.7656C32.7421 28.6707 31.9643 29.1031 29.9164 29.1031C27.5426 29.1031 25.494 27.0311 25.494 24.578H40.9142C41.5831 30.0886 45.8764 34.84 51.7689 34.84C54.3106 34.84 56.6378 33.5901 58.0603 31.4784H58.1459V33.6337H65.9369V0.362671H58.1474ZM25.7398 19.7457C26.2321 17.6317 27.8709 16.2503 29.9164 16.2503C32.1689 16.2503 33.7244 17.5889 34.1328 19.7457H25.7398ZM48.7643 23.0979C48.7643 25.8917 50.5485 28.5664 53.4193 28.5664C56.5631 28.5664 57.9211 25.9274 57.9211 23.0979C57.9211 20.1128 56.6385 17.242 53.4193 17.242C50.3168 17.242 48.7643 20.1112 48.7643 23.0979Z" fill="#ABAFC7"/>
</svg>
