<svg width="161" height="35" viewBox="0 0 161 35" fill="none" xmlns="http://www.w3.org/2000/svg">
<path fill-rule="evenodd" clip-rule="evenodd" d="M32.7674 34.5701H22.9512V16.8251H32.7674V34.5701ZM158.108 34.5701H148.291V16.8251H158.108V34.5701Z" fill="#ABAFC7"/>
<path fill-rule="evenodd" clip-rule="evenodd" d="M0.316406 0.632015H153.728C156.002 0.594721 158.12 1.78657 159.267 3.74995C160.415 5.71333 160.415 8.14307 159.267 10.1063C158.119 12.0695 156.001 13.2611 153.727 13.2235L17.3059 13.2201V34.4898H0.316406V0.632015ZM17.3068 8.93043H134.883C135.608 8.9454 136.285 8.56709 136.652 7.94143C137.019 7.31577 137.019 6.54058 136.652 5.91492C136.285 5.28926 135.608 4.91094 134.883 4.92592L17.3068 4.91482V8.93043Z" fill="#ABAFC7"/>
<path fill-rule="evenodd" clip-rule="evenodd" d="M63.5337 28.2009C65.539 27.2926 66.8075 25.2729 66.8075 22.9287C66.8075 19.7343 64.2952 16.8251 60.0158 16.8251H39.8174V34.5701H49.6336V28.8446H52.8434L55.8004 34.5701H66.8118L63.5337 28.2009ZM55.2345 24.5464H49.6336V20.7903L55.2345 20.8091C56.2665 20.8091 57.1031 21.6457 57.1031 22.6778C57.1031 23.7098 56.2665 24.5464 55.2345 24.5464ZM94.6154 34.5701H72.9684V16.8251H94.6154V21.1045H82.7837V23.7158H94.6154V27.9943H82.7837V30.6057H94.6154V34.5701ZM111.123 16.8251H101.306V34.5701H121.065V30.6057H111.123V16.8251ZM124.443 16.8251H134.258V30.6057H144.201V34.5701H124.443V16.8251Z" fill="#ABAFC7"/>
</svg>
