<svg width="35" height="31" viewBox="0 0 35 31" fill="none" xmlns="http://www.w3.org/2000/svg">
<path d="M32.4997 6.84733H22.4997C22.0576 6.84733 21.6337 7.02293 21.3212 7.33549C21.0086 7.64805 20.833 8.07197 20.833 8.514V13.514H17.4997V1.84733C17.4997 1.4053 17.3241 0.98138 17.0115 0.668819C16.699 0.356259 16.275 0.180664 15.833 0.180664H2.49967C2.05765 0.180664 1.63372 0.356259 1.32116 0.668819C1.0086 0.98138 0.833008 1.4053 0.833008 1.84733V28.514C0.833008 28.956 1.0086 29.3799 1.32116 29.6925C1.63372 30.0051 2.05765 30.1807 2.49967 30.1807H32.4997C32.9417 30.1807 33.3656 30.0051 33.6782 29.6925C33.9907 29.3799 34.1663 28.956 34.1663 28.514V8.514C34.1663 8.07197 33.9907 7.64805 33.6782 7.33549C33.3656 7.02293 32.9417 6.84733 32.4997 6.84733ZM10.833 5.18066H14.1663V8.514H10.833V5.18066ZM7.49967 21.8473H4.16634V18.514H7.49967V21.8473ZM7.49967 15.1807H4.16634V11.8473H7.49967V15.1807ZM7.49967 8.514H4.16634V5.18066H7.49967V8.514ZM14.1663 21.8473H10.833V18.514H14.1663V21.8473ZM14.1663 15.1807H10.833V11.8473H14.1663V15.1807ZM29.1663 21.8473H25.833V18.514H29.1663V21.8473ZM29.1663 15.1807H25.833V11.8473H29.1663V15.1807Z" fill="white"/>
</svg>
