<svg width="45" height="45" viewBox="0 0 45 45" fill="none" xmlns="http://www.w3.org/2000/svg">
<path d="M23.5612 4.56789C23.2527 4.34661 22.8821 4.22852 22.5025 4.23049C22.1228 4.23247 21.7535 4.35441 21.4473 4.57889C18.085 7.01539 7.83301 15.3094 7.83301 25.8474C7.83301 31.8002 11.4043 36.9262 16.512 39.2234C15.6381 37.9936 15.1679 36.5227 15.1663 35.0141C15.1352 29.1089 21.6893 22.3769 21.968 22.1807C22.1228 22.0698 22.3084 22.0102 22.4988 22.0102C22.6891 22.0102 22.8748 22.0698 23.0295 22.1807C23.3082 22.3769 29.833 27.6331 29.833 35.0177C29.833 36.5834 29.3288 38.0299 28.4892 39.2234C33.595 36.9262 37.1663 31.8021 37.1663 25.8566C37.1663 15.1114 26.9327 6.96039 23.5612 4.56789Z" fill="#4C40F7"/>
</svg>
