<svg width="24" height="25" viewBox="0 0 24 25" fill="none" xmlns="http://www.w3.org/2000/svg">
<path d="M21.4258 11.1057L4.42576 3.10567C4.25458 3.02512 4.06406 2.99478 3.87632 3.01818C3.68859 3.04157 3.51134 3.11775 3.36516 3.23785C3.21899 3.35795 3.10988 3.51706 3.05051 3.69669C2.99114 3.87632 2.98395 4.06911 3.02976 4.25267L4.24176 9.10166L11.9998 12.0107L4.24176 14.9197L3.02976 19.7687C2.98309 19.9524 2.98968 20.1455 3.04877 20.3256C3.10787 20.5057 3.21702 20.6652 3.36346 20.7856C3.5099 20.9059 3.68757 20.982 3.8757 21.005C4.06382 21.0281 4.25461 20.9971 4.42576 20.9157L21.4258 12.9157C21.5976 12.8349 21.7428 12.7069 21.8446 12.5467C21.9463 12.3864 22.0004 12.2005 22.0004 12.0107C22.0004 11.8208 21.9463 11.6349 21.8446 11.4747C21.7428 11.3144 21.5976 11.1864 21.4258 11.1057Z" fill="#ABAFC7"/>
</svg>
