<svg width="16" height="17" viewBox="0 0 16 17" fill="none" xmlns="http://www.w3.org/2000/svg">
<path d="M7.99966 4.92871C7.18208 4.92871 6.398 5.25349 5.81988 5.8316C5.24177 6.40972 4.91699 7.1938 4.91699 8.01138C4.91699 8.82895 5.24177 9.61304 5.81988 10.1912C6.398 10.7693 7.18208 11.094 7.99966 11.094C8.81723 11.094 9.60132 10.7693 10.1794 10.1912C10.7575 9.61304 11.0823 8.82895 11.0823 8.01138C11.0823 7.1938 10.7575 6.40972 10.1794 5.8316C9.60132 5.25349 8.81723 4.92871 7.99966 4.92871V4.92871ZM7.99966 10.0134C7.46852 10.0134 6.95913 9.80238 6.58356 9.42681C6.20799 9.05124 5.99699 8.54185 5.99699 8.01071C5.99699 7.47957 6.20799 6.97018 6.58356 6.59461C6.95913 6.21904 7.46852 6.00804 7.99966 6.00804C8.5308 6.00804 9.04019 6.21904 9.41576 6.59461C9.79133 6.97018 10.0023 7.47957 10.0023 8.01071C10.0023 8.54185 9.79133 9.05124 9.41576 9.42681C9.04019 9.80238 8.5308 10.0134 7.99966 10.0134V10.0134Z" fill="white"/>
<path d="M11.204 5.53401C11.6009 5.53401 11.9227 5.21225 11.9227 4.81535C11.9227 4.41844 11.6009 4.09668 11.204 4.09668C10.8071 4.09668 10.4854 4.41844 10.4854 4.81535C10.4854 5.21225 10.8071 5.53401 11.204 5.53401Z" fill="white"/>
<path d="M13.6883 4.08483C13.534 3.68628 13.2981 3.32435 12.9959 3.0222C12.6936 2.72005 12.3316 2.48434 11.933 2.33016C11.4665 2.15506 10.9738 2.06039 10.4756 2.05016C9.83364 2.02216 9.63031 2.01416 8.00231 2.01416C6.37431 2.01416 6.16564 2.01416 5.52898 2.05016C5.03124 2.05986 4.53881 2.15456 4.07298 2.33016C3.67427 2.48416 3.31215 2.71981 3.00987 3.02198C2.70758 3.32415 2.4718 3.68618 2.31764 4.08483C2.14251 4.55124 2.04805 5.04405 2.03831 5.54216C2.00964 6.18349 2.00098 6.38683 2.00098 8.01549C2.00098 9.64349 2.00098 9.85083 2.03831 10.4888C2.04831 10.9875 2.14231 11.4795 2.31764 11.9468C2.47223 12.3453 2.70824 12.7072 3.0106 13.0093C3.31296 13.3115 3.67502 13.5472 4.07364 13.7015C4.5386 13.8836 5.03122 13.9851 5.53031 14.0015C6.17231 14.0295 6.37564 14.0382 8.00364 14.0382C9.63164 14.0382 9.84031 14.0382 10.477 14.0015C10.975 13.9914 11.4678 13.8969 11.9343 13.7222C12.3328 13.5676 12.6947 13.3317 12.997 13.0295C13.2992 12.7272 13.5351 12.3653 13.6896 11.9668C13.865 11.5002 13.959 11.0082 13.969 10.5095C13.9976 9.86816 14.0063 9.66483 14.0063 8.03616C14.0063 6.40749 14.0063 6.20083 13.969 5.56283C13.9612 5.05768 13.8663 4.55766 13.6883 4.08483V4.08483ZM12.8763 10.4395C12.872 10.8237 12.8019 11.2043 12.669 11.5648C12.5689 11.8241 12.4156 12.0595 12.219 12.2559C12.0225 12.4524 11.7869 12.6055 11.5276 12.7055C11.1711 12.8378 10.7946 12.9079 10.4143 12.9128C9.78098 12.9422 9.60231 12.9495 7.97831 12.9495C6.35298 12.9495 6.18698 12.9495 5.54164 12.9128C5.16159 12.9082 4.78519 12.838 4.42898 12.7055C4.16877 12.6061 3.93231 12.4533 3.7349 12.2568C3.5375 12.0603 3.38353 11.8246 3.28298 11.5648C3.15194 11.2082 3.08185 10.8321 3.07564 10.4522C3.04698 9.81883 3.04031 9.64016 3.04031 8.01616C3.04031 6.39149 3.04031 6.22549 3.07564 5.57949C3.07995 5.19551 3.15008 4.81511 3.28298 4.45483C3.48631 3.92883 3.90298 3.51483 4.42898 3.31349C4.78537 3.18159 5.16166 3.11147 5.54164 3.10616C6.17564 3.07749 6.35364 3.06949 7.97831 3.06949C9.60298 3.06949 9.76964 3.06949 10.4143 3.10616C10.7946 3.11073 11.1712 3.18087 11.5276 3.31349C11.7869 3.41368 12.0224 3.56696 12.219 3.76351C12.4155 3.96007 12.5688 4.19554 12.669 4.45483C12.8 4.81146 12.8701 5.1876 12.8763 5.56749C12.905 6.20149 12.9123 6.37949 12.9123 8.00416C12.9123 9.62816 12.9123 9.80283 12.8836 10.4402H12.8763V10.4395Z" fill="white"/>
</svg>
