<svg width="16" height="17" viewBox="0 0 16 17" fill="none" xmlns="http://www.w3.org/2000/svg">
<path d="M3.32195 4.80893C4.12755 4.80893 4.78061 4.15587 4.78061 3.35027C4.78061 2.54467 4.12755 1.8916 3.32195 1.8916C2.51635 1.8916 1.86328 2.54467 1.86328 3.35027C1.86328 4.15587 2.51635 4.80893 3.32195 4.80893Z" fill="white"/>
<path d="M6.15814 5.91387V14.0065H8.67081V10.0045C8.67081 8.94853 8.86948 7.92587 10.1788 7.92587C11.4701 7.92587 11.4861 9.1332 11.4861 10.0712V14.0072H14.0001V9.5692C14.0001 7.3892 13.5308 5.71387 10.9828 5.71387C9.75948 5.71387 8.93948 6.3852 8.60414 7.02053H8.57014V5.91387H6.15814ZM2.06348 5.91387H4.58014V14.0065H2.06348V5.91387Z" fill="white"/>
</svg>
