<svg width="40" height="41" viewBox="0 0 40 41" fill="none" xmlns="http://www.w3.org/2000/svg">
<path d="M19.3115 11.8457H12.8365C12.1523 11.8455 11.4845 12.0559 10.924 12.4483C10.3634 12.8407 9.93719 13.3961 9.70318 14.0391L3.43651 31.2757C3.21485 31.8841 3.36651 32.5657 3.82318 33.0241L4.31151 33.5124L15.0148 22.8091C15.0132 22.7657 15.0015 22.7224 15.0015 22.6791C15.0015 22.1846 15.1481 21.7013 15.4228 21.2901C15.6975 20.879 16.088 20.5586 16.5448 20.3694C17.0016 20.1801 17.5043 20.1306 17.9892 20.2271C18.4742 20.3236 18.9196 20.5617 19.2693 20.9113C19.6189 21.2609 19.857 21.7064 19.9535 22.1913C20.0499 22.6763 20.0004 23.179 19.8112 23.6358C19.622 24.0926 19.3016 24.483 18.8904 24.7577C18.4793 25.0324 17.996 25.1791 17.5015 25.1791C17.4582 25.1791 17.4148 25.1674 17.3715 25.1657L6.66818 35.8691L7.15651 36.3574C7.3806 36.582 7.66432 36.7378 7.97414 36.8064C8.28396 36.8749 8.60692 36.8533 8.90485 36.7441L26.1415 30.4757C26.7845 30.2417 27.3399 29.8155 27.7323 29.2549C28.1247 28.6944 28.3351 28.0266 28.3348 27.3424V20.8674L31.6665 17.5374L22.6432 8.51406L19.3115 11.8457ZM33.2332 15.2824L24.8998 6.94906L28.4332 3.41406L36.7665 11.7474L33.2332 15.2824Z" fill="white"/>
</svg>
