<svg width="120" height="17" viewBox="0 0 120 17" fill="none" xmlns="http://www.w3.org/2000/svg">
<path d="M16.017 6.48375C15.9643 6.32244 15.8261 6.20723 15.6582 6.18089L10.6545 5.46983L8.40278 0.943428C8.32707 0.791999 8.17235 0.696533 8.00446 0.696533C7.83657 0.696533 7.68185 0.791999 7.60613 0.94672L5.38408 5.48629L0.380347 6.23027C0.212459 6.25661 0.0741979 6.37182 0.0215271 6.53312C-0.0311438 6.69443 0.0149432 6.87219 0.136745 6.98741L3.76774 10.5065L2.9283 15.4905C2.89867 15.6584 2.9678 15.8262 3.10607 15.925C3.18178 15.981 3.27395 16.0106 3.36613 16.0106C3.43855 16.0106 3.50768 15.9941 3.57352 15.9579L8.04067 13.591L12.521 15.9316C12.5868 15.9645 12.656 15.981 12.7251 15.981C12.9687 15.981 13.1695 15.7802 13.1695 15.5366C13.1695 15.5003 13.1662 15.4674 13.1563 15.4345L12.2906 10.4802L15.8985 6.94132C16.0269 6.82281 16.0697 6.64505 16.017 6.48375Z" fill="#4C40F7"/>
<path d="M42.0072 6.48375C41.9546 6.32244 41.8163 6.20723 41.6484 6.18089L36.6447 5.46983L34.393 0.943428C34.3173 0.791999 34.1626 0.696533 33.9947 0.696533C33.8268 0.696533 33.6721 0.791999 33.5964 0.94672L31.3743 5.48629L26.3706 6.23027C26.2027 6.25661 26.0644 6.37182 26.0118 6.53312C25.9591 6.69443 26.0052 6.87219 26.127 6.98741L29.758 10.5065L28.9185 15.4905C28.8889 15.6584 28.958 15.8262 29.0963 15.925C29.172 15.981 29.2642 16.0106 29.3564 16.0106C29.4288 16.0106 29.4979 15.9941 29.5638 15.9579L34.0309 13.591L38.5112 15.9316C38.5771 15.9645 38.6462 15.981 38.7153 15.981C38.9589 15.981 39.1597 15.7802 39.1597 15.5366C39.1597 15.5003 39.1564 15.4674 39.1466 15.4345L38.2808 10.4802L41.8887 6.94132C42.0171 6.82281 42.0599 6.64505 42.0072 6.48375Z" fill="#4C40F7"/>
<path d="M67.9975 6.48375C67.9448 6.32244 67.8066 6.20723 67.6387 6.18089L62.6349 5.46983L60.3833 0.943428C60.3075 0.791999 60.1528 0.696533 59.9849 0.696533C59.817 0.696533 59.6623 0.791999 59.5866 0.94672L57.3646 5.48629L52.3608 6.23027C52.1929 6.25661 52.0547 6.37182 52.002 6.53312C51.9493 6.69443 51.9954 6.87219 52.1172 6.98741L55.7482 10.5065L54.9088 15.4905C54.8791 15.6584 54.9483 15.8262 55.0865 15.925C55.1622 15.981 55.2544 16.0106 55.3466 16.0106C55.419 16.0106 55.4882 15.9941 55.554 15.9579L60.0211 13.591L64.5015 15.9316C64.5673 15.9645 64.6364 15.981 64.7056 15.981C64.9492 15.981 65.15 15.7802 65.15 15.5366C65.15 15.5003 65.1467 15.4674 65.1368 15.4345L64.271 10.4802L67.879 6.94132C68.0074 6.82281 68.0502 6.64505 67.9975 6.48375Z" fill="#4C40F7"/>
<path d="M93.9877 6.48375C93.935 6.32244 93.7968 6.20723 93.6289 6.18089L88.6252 5.46983L86.3735 0.943428C86.2978 0.791999 86.143 0.696533 85.9752 0.696533C85.8073 0.696533 85.6526 0.791999 85.5768 0.94672L83.3548 5.48629L78.3511 6.23027C78.1832 6.25661 78.0449 6.37182 77.9922 6.53312C77.9396 6.69443 77.9856 6.87219 78.1074 6.98741L81.7384 10.5065L80.899 15.4905C80.8694 15.6584 80.9385 15.8262 81.0768 15.925C81.1525 15.981 81.2447 16.0106 81.3368 16.0106C81.4093 16.0106 81.4784 15.9941 81.5442 15.9579L86.0114 13.591L90.4917 15.9316C90.5575 15.9645 90.6267 15.981 90.6958 15.981C90.9394 15.981 91.1402 15.7802 91.1402 15.5366C91.1402 15.5003 91.1369 15.4674 91.127 15.4345L90.2613 10.4802L93.8692 6.94132C93.9976 6.82281 94.0404 6.64505 93.9877 6.48375Z" fill="#4C40F7"/>
<path d="M119.978 6.48375C119.925 6.32244 119.787 6.20723 119.619 6.18089L114.615 5.46983L112.364 0.943428C112.288 0.791999 112.133 0.696533 111.965 0.696533C111.798 0.696533 111.643 0.791999 111.567 0.94672L109.345 5.48629L104.341 6.23027C104.173 6.25661 104.035 6.37182 103.982 6.53312C103.93 6.69443 103.976 6.87219 104.098 6.98741L107.729 10.5065L106.889 15.4905C106.86 15.6584 106.929 15.8262 107.067 15.925C107.143 15.981 107.235 16.0106 107.327 16.0106C107.399 16.0106 107.469 15.9941 107.534 15.9579L112.002 13.591L116.482 15.9316C116.548 15.9645 116.617 15.981 116.686 15.981C116.93 15.981 117.13 15.7802 117.13 15.5366C117.13 15.5003 117.127 15.4674 117.117 15.4345L116.251 10.4802L119.859 6.94132C119.988 6.82281 120.031 6.64505 119.978 6.48375Z" fill="#4C40F7"/>
</svg>
