<svg width="16" height="17" viewBox="0 0 16 17" fill="none" xmlns="http://www.w3.org/2000/svg">
<path d="M13.0883 5.34194C13.097 5.45861 13.097 5.57461 13.097 5.69061C13.097 9.24061 10.395 13.3313 5.45701 13.3313C3.93567 13.3313 2.52234 12.8906 1.33301 12.1253C1.54901 12.1499 1.75701 12.1586 1.98167 12.1586C3.19034 12.1615 4.36477 11.7574 5.31567 11.0113C4.75529 11.0011 4.21206 10.8162 3.76183 10.4824C3.31161 10.1486 2.97686 9.68254 2.80434 9.14928C2.97034 9.17394 3.13701 9.19061 3.31167 9.19061C3.55234 9.19061 3.79434 9.15728 4.01901 9.09928C3.41085 8.97648 2.86399 8.64684 2.47142 8.1664C2.07885 7.68596 1.8648 7.08437 1.86567 6.46394V6.43061C2.22367 6.62994 2.63901 6.75461 3.07901 6.77128C2.7104 6.52633 2.40815 6.19396 2.19923 5.8038C1.99031 5.41365 1.88122 4.97785 1.88167 4.53528C1.88167 4.03661 2.01434 3.57928 2.24701 3.18061C2.92177 4.01062 3.76334 4.68965 4.71723 5.17371C5.67112 5.65778 6.71605 5.93609 7.78434 5.99061C7.74301 5.79061 7.71767 5.58328 7.71767 5.37528C7.7175 5.02258 7.78684 4.67331 7.92173 4.34744C8.05661 4.02156 8.25441 3.72546 8.5038 3.47607C8.75319 3.22668 9.04929 3.02888 9.37517 2.89399C9.70105 2.75911 10.0503 2.68977 10.403 2.68994C11.1763 2.68994 11.8743 3.01394 12.365 3.53794C12.9662 3.42169 13.5427 3.20222 14.069 2.88927C13.8686 3.50982 13.4488 4.03601 12.8883 4.36928C13.4215 4.30846 13.9426 4.16824 14.4343 3.95328C14.0671 4.48867 13.612 4.95817 13.0883 5.34194V5.34194Z" fill="white"/>
</svg>
