<svg width="169" height="36" viewBox="0 0 169 36" fill="none" xmlns="http://www.w3.org/2000/svg">
<path fill-rule="evenodd" clip-rule="evenodd" d="M13.8944 24.9763C16.5816 29.3823 21.5101 32.3384 26.9952 32.3384C35.0997 32.3384 39.5611 25.3443 39.5611 25.3443L40.1354 27.2073C36.3833 32.0872 29.6803 35.0269 22.181 35.0269C13.5469 35.0269 6.10052 30.908 2.67424 24.9683C1.3842 22.731 0.664062 20.2321 0.664062 17.6003C0.664062 7.97591 10.2965 0.174316 22.1807 0.174316C30.5776 0.174316 37.3382 3.77095 40.8871 8.98317L26.7979 17.42L34.8386 5.07339C32.5382 3.62662 29.7159 2.27184 26.7979 2.27184C18.5491 2.27184 11.755 9.15538 11.755 17.4039C11.755 20.1677 12.5399 22.7645 13.8944 24.9763ZM51.6194 24.9714C51.5772 25.2528 51.556 25.537 51.5562 25.8216C51.5562 28.9527 54.0948 31.4916 57.2262 31.4916C60.3576 31.4916 62.8959 28.953 62.8959 25.8216C62.8961 25.5359 62.8748 25.2507 62.8324 24.9683C62.4223 22.2435 60.0687 20.1519 57.2259 20.1519C54.3835 20.1519 52.0295 22.2435 51.6194 24.9714ZM75.4761 34.4604L72.6581 24.9683L68.4597 10.8267C68.4597 10.8267 65.8071 3.6037 57.4365 6.64901C49.066 9.69463 47.1784 10.8267 47.1784 10.8267H58.5234L61.2159 19.8288C59.1447 17.9992 56.1134 16.8452 52.736 16.8452C46.7857 16.8452 41.9095 20.4279 41.4654 24.9683C41.4437 25.199 41.4326 25.4251 41.4326 25.6528C41.4326 30.5175 46.493 34.4604 52.736 34.4604C57.9538 34.4604 62.3461 31.7059 63.6476 27.9606L65.5912 34.4604H75.4761ZM104.263 24.9683V34.4604H94.0915V13.6053C94.0915 12.0707 92.8474 10.8267 91.3128 10.8267C90.1673 10.8264 89.139 11.5292 88.7231 12.5965V34.4604H78.7407V10.8267H72.9189C72.9189 10.8267 81.0179 5.9202 83.8262 5.9202C86.4878 5.9202 88.4577 7.96507 88.7039 10.5699C89.458 10.1632 90.2108 9.74076 90.9541 9.32371C94.0714 7.57443 97.0194 5.9202 99.1773 5.9202C101.938 5.9202 104.186 8.12056 104.263 10.8639V24.9683ZM121.347 29.6468L119.931 24.9683L115.655 10.8264C115.887 8.98224 117.705 7.20002 119.613 7.20002C121.54 7.20002 123.126 8.65485 123.334 10.5263L127.56 24.9683L128.763 29.0806C128.779 29.2225 128.788 29.3665 128.788 29.513C128.788 31.5805 127.112 33.2561 125.044 33.2561C123.022 33.2561 121.374 31.652 121.347 29.6468ZM136.118 24.9701C134.192 30.8108 128.69 35.0269 122.204 35.0269C115.717 35.0269 110.216 30.8111 108.289 24.9683C107.801 23.4874 107.553 21.938 107.555 20.3789C107.555 12.289 114.113 5.73126 122.204 5.73126C130.294 5.73126 136.852 12.289 136.852 20.3789C136.852 21.9824 136.594 23.5261 136.118 24.9701ZM152.958 34.4604V24.9683V12.5965C153.374 11.5292 154.403 10.8264 155.548 10.8267C157.083 10.8267 158.327 12.0707 158.327 13.6053V34.4604H168.498V10.8639C168.422 8.12056 166.174 5.9202 163.413 5.9202C161.255 5.9202 158.308 7.57404 155.191 9.32308C154.447 9.74033 153.694 10.163 152.94 10.5699C152.693 7.96507 150.723 5.9202 148.061 5.9202C145.253 5.9202 137.393 10.8267 137.393 10.8267H142.976V34.4604H152.958Z" fill="#ABAFC7"/>
</svg>
