<svg width="170" height="36" viewBox="0 0 170 36" fill="none" xmlns="http://www.w3.org/2000/svg">
<path fill-rule="evenodd" clip-rule="evenodd" d="M20.9781 0.335938C24.5858 0.928245 27.9781 2.92055 30.132 5.88209C30.5628 6.4744 30.9935 7.12055 31.3166 7.82055C30.7938 8.18249 30.271 8.53691 29.751 8.88943L29.7509 8.88949C28.8785 9.48098 28.0139 10.0671 27.1704 10.6744C26.9551 10.8359 26.7935 10.9436 26.5243 11.0513C25.8781 9.43594 24.7474 7.98209 23.2935 7.01286C22.2166 6.31286 20.9781 5.82825 19.7397 5.55901C20.0427 4.17378 20.3805 2.78854 20.7252 1.37532L20.7252 1.37516C20.8092 1.03055 20.8937 0.684279 20.9781 0.335938ZM7.94737 1.89748C9.6166 1.35901 11.5551 2.22055 12.2551 3.78209C12.8474 4.96671 12.6858 6.52825 11.8781 7.55132C10.8551 8.84363 8.9166 9.32825 7.46276 8.5744C6.49352 8.08978 5.73968 7.1744 5.52429 6.09748C5.36276 5.28978 5.4166 4.42825 5.84737 3.6744C6.27814 2.81286 7.08583 2.22055 7.94737 1.89748ZM4.45538 20.247C3.14514 20.235 1.8428 20.2232 0.516602 20.259C0.839678 22.8436 1.64737 25.3206 3.04737 27.3667C4.23199 29.3052 5.90122 30.9744 7.78583 32.2129C11.2858 34.5282 15.6474 35.3898 19.7935 34.8513C21.8935 34.5821 23.9935 33.8821 25.8243 32.8052C28.6781 31.1359 30.8858 28.4975 32.0704 25.4282C32.2858 24.8898 32.5012 24.3513 32.5551 23.8129C31.8065 23.586 31.0771 23.3401 30.3507 23.0952C29.3527 22.7587 28.3604 22.4241 27.332 22.1436C26.9551 23.5436 26.2551 24.8359 25.3397 25.9667C23.9935 27.6359 22.1628 28.7667 20.1166 29.2513C17.8551 29.7898 15.4858 29.6821 13.332 28.8744C11.7704 28.2821 10.3166 27.3667 9.18583 26.0744C7.73199 24.459 6.8166 22.4129 6.43968 20.259C5.77357 20.259 5.11348 20.253 4.45538 20.247Z" fill="#ABAFC7"/>
<path fill-rule="evenodd" clip-rule="evenodd" d="M85.9162 12.9359C89.847 9.70515 95.9316 9.759 99.97 12.8282C103.362 15.5205 104.278 20.1513 103.955 24.2436C100.183 24.2795 96.3883 24.2675 92.6011 24.2556C90.7105 24.2496 88.8219 24.2436 86.9393 24.2436C87.2085 26.5052 88.447 28.8205 90.6547 29.6821C93.8316 31.2436 98.0316 29.7359 99.1624 26.2898C99.4626 26.3829 99.7609 26.4761 100.058 26.5689L100.058 26.569L100.058 26.5691C101.306 26.9588 102.532 27.3419 103.793 27.6898C102.932 30.059 101.37 32.2667 99.1085 33.5052C94.6931 36.0359 88.5547 35.2821 84.947 31.6205C79.9931 26.6667 80.37 17.3513 85.9162 12.9359ZM49.8931 11.3205C45.4239 9.43592 39.8239 11.3205 37.2931 15.4128C33.9547 20.6359 34.6008 28.3898 39.3931 32.5898C43.27 35.9282 50.4316 36.0898 53.1777 31.1898C53.2047 31.7282 53.2316 32.2532 53.2585 32.7782C53.2854 33.3032 53.3124 33.8282 53.3393 34.3667H58.6162C58.3421 29.4667 58.3732 24.5667 58.4044 19.6667C58.4222 16.8667 58.44 14.0667 58.4008 11.2667H53.0162C53.0162 12.2898 53.0162 13.259 53.07 14.2282C52.2624 12.9898 51.2931 11.859 49.8931 11.3205ZM41.9239 27.3128C39.6624 23.4359 40.5239 16.759 45.4777 15.5205C48.0624 14.8744 51.0777 16.059 52.2085 18.5359C53.6624 21.7128 53.447 25.9128 50.97 28.4975C48.4931 31.1359 43.647 30.4898 41.9239 27.3128ZM87.1607 19.8179C87.4415 18.8516 87.7351 17.8414 88.447 17.0821C90.3854 14.7667 94.2085 14.5513 96.5239 16.2744C97.7624 17.1898 98.1931 18.6975 98.57 20.0975C95.7011 20.2591 92.8018 20.2388 89.9176 20.2186H89.9175H89.9173H89.9172H89.917C88.9581 20.2119 88.0009 20.2052 87.047 20.2052C87.0853 20.0774 87.1229 19.948 87.1607 19.8179ZM112.193 12.7205C115.909 9.86669 121.347 9.86669 125.278 12.2898C129.155 14.8205 130.447 19.8821 129.909 24.2436C126.139 24.2077 122.37 24.2197 118.601 24.2316L118.6 24.2316C116.716 24.2376 114.831 24.2436 112.947 24.2436C113.216 25.5898 113.539 26.9898 114.455 28.0128C116.501 30.5436 120.593 31.0282 123.178 29.0898C123.799 28.6409 124.199 27.9928 124.591 27.3584C124.81 27.0034 125.027 26.6527 125.278 26.3436C126.409 26.6263 127.539 26.9999 128.67 27.3734C129.047 27.4979 129.424 27.6225 129.801 27.7436C128.939 30.1667 127.324 32.3744 125.009 33.6128C120.647 35.9821 114.724 35.3359 111.17 31.8359C105.893 26.8282 106.324 17.0821 112.193 12.7205ZM113.106 19.8484C113.389 18.8828 113.676 17.9027 114.347 17.1359C116.339 14.659 120.378 14.4975 122.693 16.4359C123.824 17.4052 124.201 18.859 124.47 20.2052H113.001C113.036 20.0867 113.071 19.9677 113.106 19.8484ZM140.462 14.0667C143.532 9.32823 151.662 9.38207 154.247 14.5513C156.724 10.2975 162.916 9.32823 166.793 12.1821C168.893 13.7975 169.862 16.4898 169.862 19.0744C169.898 22.4477 169.886 25.8209 169.874 29.1942V29.1975C169.868 30.8846 169.862 32.5718 169.862 34.259H164.532V20.6359C164.532 19.2359 164.316 17.7282 163.347 16.7052C161.301 14.659 157.37 15.1975 156.024 17.7821C155.324 18.9667 155.324 20.4205 155.324 21.7128V34.259H149.939C149.916 32.1588 149.923 30.0585 149.929 27.9625V27.9605V27.9604C149.938 25.167 149.947 22.3811 149.885 19.6128C149.885 17.459 148.109 15.4667 145.901 15.5205C143.316 15.1436 140.893 17.2436 140.732 19.7744C140.635 22.684 140.654 25.5936 140.673 28.4916V28.4923C140.686 30.4208 140.699 32.3442 140.678 34.259H135.239V11.159H140.516C140.516 12.1821 140.516 13.1513 140.462 14.0667ZM70.7854 11.2128H65.4008V34.3128H70.8931C70.92 32.4013 70.92 30.4897 70.92 28.5781C70.92 26.6666 70.92 24.7551 70.947 22.8436C71.0008 20.9052 71.5931 18.6975 73.3162 17.5667C74.77 16.5006 76.6163 16.5684 78.3449 16.6319C78.537 16.6389 78.7277 16.6459 78.9162 16.6513V10.9975C75.7393 10.5667 72.2393 11.8052 70.7316 14.8205C70.7316 14.2282 70.745 13.6225 70.7585 13.0167C70.772 12.4109 70.7854 11.8052 70.7854 11.2128Z" fill="#ABAFC7"/>
</svg>
