<svg width="122" height="36" viewBox="0 0 122 36" fill="none" xmlns="http://www.w3.org/2000/svg">
<path fill-rule="evenodd" clip-rule="evenodd" d="M5.09483 6.70471H0.886719V29.6541H5.09483V20.1086H13.97V29.6541H18.1835V6.70471H13.97V16.0539H5.09483V6.70471ZM28.0289 25.6636C29.9496 25.6636 31.5148 24.1003 31.5148 22.1792V12.2986H35.5041V22.1792C35.5041 26.3012 32.1503 29.6541 28.0289 29.6541C23.9066 29.6541 20.5525 26.3012 20.5525 22.1792V12.2986H24.5433V22.1792C24.5433 24.1003 26.1076 25.6636 28.0289 25.6636ZM46.6448 12.4144C44.6652 12.4144 43.2834 12.9888 41.949 14.2987V6.70471H37.9453V20.7785C37.9453 26.0464 41.7541 29.6541 46.0331 29.6541C50.7902 29.6541 54.9583 25.9821 54.9583 21.0345C54.9583 16.1496 51.1148 12.4144 46.6448 12.4144ZM41.9568 21.0345C41.9568 23.6845 44.0314 25.9502 46.7443 25.9502C49.0431 25.9502 51.1188 23.6845 51.1188 21.0345C51.1188 18.384 49.0431 16.1176 46.7443 16.1176C44.0314 16.1176 41.9568 18.384 41.9568 21.0345ZM61.6827 13.423C61.6827 11.4104 63.0237 10.7723 64.4918 10.7723C65.6737 10.7723 67.2377 11.6662 68.2584 12.7519L70.8756 9.6873C69.5676 7.93164 66.9183 6.71815 64.7473 6.71815C60.4051 6.71815 57.2764 9.24037 57.2764 13.423C57.2764 17.8605 60.3998 18.955 63.0734 19.892C65.0738 20.593 66.8224 21.2058 66.8224 23.0645C66.8224 24.4039 65.5139 25.5863 64.0142 25.5863C61.8674 25.5863 61.0382 24.6379 60.091 23.5545C59.9954 23.4452 59.8987 23.3346 59.7993 23.2234L56.8936 26.2239C58.7463 28.4908 61.0441 29.6407 63.7901 29.6407C67.9081 29.6407 71.2285 27.0866 71.2285 23.0954C71.2285 17.8976 67.7572 16.8096 65.0012 15.9458C63.1869 15.3772 61.6827 14.9057 61.6827 13.423ZM73.6807 21.0642C73.6807 15.7951 77.49 12.1895 81.7686 12.1895C86.5247 12.1895 90.694 15.8606 90.694 20.8089C90.694 25.6938 86.8501 29.4285 82.3803 29.4285C80.4 29.4285 79.0189 28.8531 77.6842 27.5442V35.1743H73.6807V21.0642ZM82.48 25.7258C79.7673 25.7258 77.6925 23.457 77.6925 20.8089C77.6925 18.1584 79.7673 15.892 82.48 15.892C84.7783 15.892 86.8543 18.1584 86.8543 20.8089C86.8543 23.457 84.7783 25.7258 82.48 25.7258ZM117.132 23.3641C117.132 24.9291 117.803 25.9502 120.164 25.9502C120.613 25.9502 121.123 25.9184 121.57 25.8875L120.58 29.5266C120.197 29.6211 119.494 29.6541 118.983 29.6541C115.568 29.6541 113.079 27.8341 113.079 24.2262V10.1151L117.132 8.29584V12.9254H120.803V16.4367H117.132V23.3641Z" fill="#ABAFC7"/>
<path fill-rule="evenodd" clip-rule="evenodd" d="M106.409 13.4648C107.759 14.2618 108.838 15.3204 109.606 16.6409C110.36 17.9517 110.719 19.3826 110.719 20.9334V21.0121C110.719 22.5886 110.273 24.0216 109.462 25.3185C108.656 26.6119 107.589 27.6251 106.226 28.3659C104.932 29.067 103.555 29.4097 102.096 29.4097H101.854C100.535 29.4097 99.3286 29.1219 98.236 28.6495C97.6821 28.4103 97.1668 28.1328 96.6897 27.8033L93.2097 31.2837C93.2918 31.5454 93.3354 31.8207 93.3354 32.1028C93.3371 32.827 93.0494 33.5218 92.5363 34.0327C92.0253 34.5465 91.3301 34.8346 90.6055 34.8327C89.8811 34.8347 89.186 34.5466 88.6754 34.0327C88.1596 33.5172 87.8756 32.8319 87.8753 32.1028C87.8729 31.3785 88.1605 30.6832 88.674 30.1723C89.4238 29.4184 90.5452 29.1725 91.5418 29.5434L94.9086 26.1683C94.3516 25.4812 93.9018 24.7212 93.5942 23.8853C93.2448 22.9281 93.0398 21.909 93.0398 20.8297V20.5089C93.0398 18.9712 93.5346 17.5616 94.3443 16.2805C94.7438 15.652 95.2433 15.092 95.7796 14.5995L85.635 7.29027L84.8968 6.7302C84.3654 7.05031 83.7497 7.24502 83.0841 7.24502C81.1325 7.24502 79.5518 5.66332 79.5518 3.71272C79.5518 1.76189 81.1309 0.180664 83.0824 0.180664C85.0339 0.180664 86.6138 1.76189 86.6138 3.71272C86.6138 4.03802 86.5499 4.34634 86.4669 4.64547C89.1406 6.67388 93.2641 9.80631 95.8737 11.7887C96.6786 12.4001 97.3394 12.9021 97.7693 13.2286C98.6622 12.7769 99.64 12.483 100.583 12.3467V8.14901C99.4043 7.64857 98.715 6.54091 98.715 5.24869C98.715 3.48737 100.152 2.06008 101.914 2.06008C103.673 2.06008 105.086 3.48737 105.086 5.24869C105.086 6.54091 104.354 7.64857 103.176 8.14901V12.3449C104.354 12.5049 105.4 12.8776 106.409 13.4648ZM102.096 25.6382C103.324 25.6382 104.409 24.9916 105.354 23.9419C106.176 23.0374 106.587 22.041 106.587 20.9652C106.587 20.804 106.581 20.6352 106.568 20.4704C106.485 19.6777 106.229 18.95 105.798 18.2754C105.354 17.601 104.781 17.0883 104.081 16.713C103.393 16.3611 102.664 16.2093 101.894 16.2093H101.815C100.966 16.2093 100.204 16.4401 99.4898 16.9106C98.7629 17.3844 98.2162 17.9803 97.8115 18.7466C97.4329 19.4476 97.2828 20.1899 97.2828 20.9728V21.2146C97.2828 22.0109 97.5468 22.7619 98.0333 23.4497C98.504 24.1505 99.0792 24.704 99.8359 25.092C100.507 25.4444 101.193 25.6382 101.894 25.6382H102.096Z" fill="#ABAFC7"/>
</svg>
