<svg width="155" height="36" viewBox="0 0 155 36" fill="none" xmlns="http://www.w3.org/2000/svg">
<path d="M147.879 2.78809L154.336 2.82365C154.336 2.82365 142.332 19.0888 141.352 20.4144C141.034 20.8436 140.55 21.3066 140.305 21.8805C139.685 23.323 139.048 26.4875 139.048 26.4875L133.141 26.517C133.141 26.517 134.06 23.2184 134.022 21.4615C133.989 19.9268 133.206 18.3938 132.766 16.8545C132.322 15.2962 131.719 12.2472 131.719 12.2472H137.792L138.63 15.5979L147.879 2.78809" fill="#ABAFC7"/>
<path fill-rule="evenodd" clip-rule="evenodd" d="M70.5152 19.6035C71.9887 15.8739 73.5979 11.8008 73.0835 8.05911C72.761 5.71777 71.2344 3.17358 69.5588 2.1075C69.5276 2.08845 69.4485 2.02869 69.3635 1.96446L69.3632 1.96423L69.3632 1.96418L69.3631 1.9641L69.3629 1.964C69.2612 1.88711 69.1512 1.80395 69.1046 1.77656C67.8646 1.0583 65.8795 0.453075 64.4973 0.31081C57.3711 -0.420105 53.12 2.74619 50.6762 7.01172C49.7147 8.68724 49.0784 10.5174 48.582 12.457C48.0332 14.6051 47.6395 17.2105 47.9536 19.5768C48.1423 20.9943 48.9214 23.0093 50.0481 24.1841C52.5313 26.7723 57.1501 26.7405 62.2621 26.7053C62.8617 26.7012 63.4681 26.697 64.0786 26.697C65.8608 26.697 70.1348 26.6614 71.4245 26.628C71.8414 26.6153 73.0374 21.7485 72.9307 21.5914C72.8838 21.5361 72.561 21.5414 72.0692 21.5494C71.4846 21.5591 70.6614 21.5726 69.7789 21.4929C70.0126 20.8755 70.2619 20.2446 70.5152 19.6035ZM115.437 9.75091C116.131 12.2517 114.809 18.1277 114.809 18.1277C114.809 18.1277 107.909 18.0125 104.129 18.1277C103.871 18.1355 103.602 18.1338 103.335 18.132H103.335H103.335H103.335H103.335H103.335C102.387 18.1259 101.47 18.1199 101.197 18.5466C100.705 19.3128 101.377 20.4922 101.947 20.9904C102.523 21.4944 103.579 21.606 104.138 21.6652C104.215 21.6734 104.283 21.6805 104.339 21.6876C107.406 22.0773 113.827 21.7883 113.827 21.7883L112.715 26.7133C112.715 26.7133 103.641 27.1684 99.1032 26.0851C98.2071 25.8717 97.367 25.4404 96.7995 24.8289C96.6986 24.7199 96.6064 24.5852 96.5139 24.45C96.4644 24.3776 96.4148 24.3051 96.3637 24.2363C96.2467 24.079 95.9055 23.562 95.7524 23.1533C94.7159 20.3912 95.8739 15.0997 97.009 12.2641L97.0273 12.2184L97.0274 12.2181C97.1559 11.8973 97.3142 11.5024 97.4804 11.1645C97.5643 10.9942 97.6433 10.8153 97.7186 10.6447L97.7187 10.6447C97.8386 10.3731 97.9493 10.1225 98.0561 9.96039C98.1196 9.8615 98.1914 9.78173 98.2632 9.70195L98.2633 9.70183C98.3236 9.63479 98.384 9.56772 98.4395 9.48929C98.5796 9.28614 98.7427 9.08932 98.8937 8.9136C99.2884 8.45581 99.7332 8.12432 100.262 7.73055L100.36 7.65733C102.25 6.24132 105.672 5.14208 109.783 5.56285C111.331 5.72199 113.668 6.27477 114.809 7.86651C115.045 8.19373 115.188 8.76932 115.32 9.29789C115.36 9.45582 115.398 9.60956 115.437 9.75121V9.75091ZM137.577 10.899C137.577 10.899 136.846 6.93667 135.654 6.21841C134.659 5.61931 132.612 5.67797 130.52 5.73788C129.884 5.7561 129.244 5.77444 128.628 5.77444H124.539C124.192 5.77444 123.864 5.77132 123.556 5.7684L123.556 5.7684C121.59 5.74972 120.426 5.73866 120.202 6.59336C119.402 9.64663 116.013 26.4875 116.013 26.4875H121.458L125.018 10.9909H127.95C131.343 10.9909 137.577 10.899 137.577 10.899ZM109.731 11.619C110.476 12.771 110.307 13.7657 110.307 13.7657L102.192 13.7132C102.192 13.7132 102.1 10.2075 106.831 10.3561C108.506 10.4086 109.094 10.6371 109.731 11.619ZM95.7443 5.7241L90.4648 5.75515L86.6954 21.4615C86.6954 21.4615 84.6096 21.4766 83.9728 21.4615C81.9627 21.4154 81.3029 21.3485 80.8318 20.4141C80.4462 19.6511 80.6473 18.7258 80.8641 17.7281C80.9262 17.4421 80.9897 17.1502 81.041 16.8545C81.6842 13.1478 83.2298 5.7241 83.2298 5.7241L77.7598 5.77413C77.7598 5.77413 76.7188 10.5424 76.2245 12.8753C76.1254 13.3424 76.0105 13.8407 75.8906 14.3603C75.1645 17.5086 74.2573 21.4419 75.5963 23.9744C76.9935 26.6142 80.0294 26.5641 83.5851 26.5054H83.5852H83.5853H83.5854H83.5856C84.1228 26.4966 84.6719 26.4875 85.229 26.4875H91.3024C92.8019 19.6814 95.7443 5.7241 95.7443 5.7241ZM65.7538 15.8071C65.8659 15.409 65.9883 15.0042 66.1115 14.5968C66.5961 12.9946 67.0921 11.3547 67.0104 9.94351C66.8995 8.05067 65.3123 6.32722 64.2881 5.96493C61.2035 4.87594 58.3157 6.39835 57.1679 7.64015C55.6832 9.24847 55.1804 11.1271 54.6548 13.7135C54.2636 15.6335 53.9429 17.6605 54.6548 19.1579C55.7128 21.3798 58.6521 21.3295 62.072 21.271C62.7265 21.2598 63.3987 21.2483 64.0786 21.2523C64.6576 19.7005 65.1441 17.9725 65.63 16.2468L65.7538 15.8071ZM47.3526 5.78046C47.2127 6.41761 47.0728 7.08861 46.9317 7.76535C46.718 8.79012 46.5016 9.82803 46.2784 10.7814H40.4148C40.5951 10.0849 40.7586 9.38998 40.9187 8.70966L40.9187 8.7096L40.9187 8.70956C41.1619 7.67597 41.3972 6.67608 41.6713 5.75545C42.5875 5.75545 43.4722 5.76141 44.3777 5.76752C45.3266 5.77391 46.2984 5.78046 47.3529 5.78046H47.3526ZM45.8597 12.2475H40.2053C39.9186 13.1897 38.4023 19.5307 37.9019 21.8805C37.7899 22.4072 37.6905 22.9365 37.5926 23.4578C36.9349 26.9609 36.3456 30.0992 32.4573 29.6285C32.2592 30.3567 32.0363 31.1995 31.8065 32.0689C31.5405 33.075 31.2651 34.1166 31.0078 35.0568C31.4994 35.067 31.9805 35.0845 32.45 35.1015C33.7308 35.1481 34.9261 35.1916 36.0172 35.0734C36.9341 34.9734 38.5906 34.5773 38.9487 34.2358C39.023 34.1649 39.0856 34.1475 39.1525 34.1289C39.2158 34.1113 39.283 34.0926 39.3677 34.0263C41.2584 32.5493 41.7636 30.5235 42.451 27.767C42.4701 27.6901 42.4895 27.6126 42.5089 27.5346C43.6564 22.9399 45.1203 16.3394 45.8597 12.2475Z" fill="#ABAFC7"/>
<path d="M27.012 22.9275L26.8909 23.2416C24.8262 27.2624 21.1674 29.7291 15.9488 29.8379C13.5092 29.8883 11.1848 29.2622 9.66629 28.5817C6.38938 27.1093 3.633 24.3788 2.12777 21.4615C-0.03152 17.2795 -0.420939 11.462 4.06884 7.11688C4.13816 7.11688 3.52419 8.05908 3.59352 8.05908L3.46994 8.46116C0.234623 18.5903 10.2025 27.2708 19.8922 26.278C22.2208 26.0393 25.1903 24.764 27.012 22.9275Z" fill="#ABAFC7"/>
<path d="M21.1482 18.7392C23.586 18.7558 26.1323 17.6164 27.6403 16.0169C26.321 19.3655 22.5013 21.5179 17.3791 20.8334C13.0901 20.2595 9.00451 15.9436 8.58375 11.619C8.27601 8.47172 9.37283 6.59334 11.1804 4.3147C10.5522 5.50647 10.3174 6.42546 10.259 7.0117C9.57237 13.8199 15.6976 18.7033 21.1482 18.7392Z" fill="#ABAFC7"/>
<path d="M27.3957 10.2829C27.0168 11.1521 24.8349 12.7936 23.8713 12.9989C20.0558 13.8118 17.6123 12.0024 16.3322 9.94349C16.142 9.63605 15.7903 8.79633 15.7273 8.58263C15.2309 6.89475 15.459 4.34182 16.9399 3.02045C16.4938 4.27702 16.4287 5.73644 16.6635 6.68527C16.8057 7.25885 17.2391 8.26043 17.6729 8.89037C18.462 10.0378 18.9626 10.3166 19.9762 10.9261C20.4329 11.2004 20.9227 11.4204 21.1342 11.4807C22.0954 11.7637 24.1248 12.5091 27.396 10.2829" fill="#ABAFC7"/>
</svg>
