<svg width="190" height="35" viewBox="0 0 190 35" fill="none" xmlns="http://www.w3.org/2000/svg">
<path fill-rule="evenodd" clip-rule="evenodd" d="M14.0126 26.3036C23.4749 26.3036 29.4576 21.4286 29.4576 12.9364C29.4571 3.60512 23.0568 0.264038 12.6212 0.264038C8.58528 0.264038 3.71508 0.541673 0.237305 0.959308V34.2424H10.3939V26.3036H14.0126ZM19.441 13.074C19.441 17.3918 17.3528 20.3162 12.0645 20.3162H10.3935V6.56498C10.9875 6.5314 11.5423 6.5314 12.0645 6.5314C17.0718 6.53093 19.441 8.89769 19.441 13.074ZM142.72 20.3162C148.01 20.3162 150.095 17.3918 150.095 13.074C150.095 8.89769 147.728 6.53093 142.72 6.5314C142.2 6.5314 141.644 6.5314 141.055 6.56498V20.3162H142.72ZM144.673 26.3036C154.128 26.3036 160.114 21.4286 160.114 12.9364C160.114 3.60512 153.715 0.264038 143.278 0.264038C139.243 0.264038 134.37 0.541673 130.892 0.959308V34.2424H141.054V26.3036H144.673ZM178.061 6.80715C175.142 6.80715 173.331 7.64384 173.331 9.45343C173.331 11.6129 175.996 12.5437 179.151 13.6457C183.728 15.2443 189.336 17.203 189.336 23.7949C189.336 32.1514 182.377 34.9372 173.892 34.9372C170.551 34.9372 166.377 34.3819 163.318 33.2681L162.202 25.6069C165.263 27.1379 170.415 28.2513 173.749 28.2513C177.508 28.2513 179.041 27.1379 179.041 25.0511C179.041 22.8502 176.435 21.9298 173.336 20.835C168.787 19.2284 163.176 17.2464 163.176 10.2915C163.176 3.50296 168.74 0.264038 176.95 0.264038C181.262 0.264038 183.628 0.681673 186.273 1.23884L187.107 8.48242C184.744 7.50384 181.262 6.80715 178.061 6.80715ZM123.242 0.959308H113.085V34.2424H123.242V0.959308ZM71.8965 0.959308H82.0541V34.2424H71.8965V0.959308ZM99.7253 27.556V0.959308H89.5677V34.2424H107.937L109.466 27.556H99.7253ZM54.2258 0.959308H64.3833L64.3828 34.2424H54.2253V21.151H43.6501V34.2424H33.4911V0.959308H43.6505V14.1884H54.2258V0.959308Z" fill="#ABAFC7"/>
</svg>
